<svg width="45" height="41" viewBox="0 0 45 41" fill="none" xmlns="http://www.w3.org/2000/svg">
<path d="M35.7175 24.6945C35.2585 24.6945 34.8778 24.5398 34.5755 24.2305C34.2732 23.9208 34.122 23.5168 34.122 23.0185C34.122 22.5945 34.2677 22.238 34.559 21.949C34.8507 21.66 35.2128 21.5155 35.6455 21.5155H41.1075C41.1268 21.0898 41.031 20.6887 40.82 20.312C40.609 19.9353 40.3067 19.6422 39.913 19.4325C38.7877 18.8468 37.5973 18.4145 36.342 18.1355C35.0867 17.8562 33.7988 17.6998 32.4785 17.6665H31.0405C30.6085 17.6665 30.2408 17.523 29.9375 17.236C29.6342 16.949 29.4825 16.5923 29.4825 16.166C29.4825 15.7293 29.6382 15.347 29.9495 15.019C30.2608 14.6913 30.6285 14.5187 31.0525 14.501C31.3008 14.501 31.5265 14.4927 31.7295 14.476C31.9325 14.4593 32.1578 14.451 32.4055 14.451C34.0542 14.451 35.6523 14.6443 37.2 15.031C38.748 15.4177 40.2378 15.9977 41.6695 16.771C42.5785 17.243 43.2958 17.8957 43.8215 18.729C44.3472 19.5623 44.61 20.4832 44.61 21.4915V22.9915C44.61 23.4722 44.444 23.8762 44.112 24.2035C43.7803 24.5308 43.3745 24.6945 42.8945 24.6945H35.7175ZM32.4045 12.2395C30.7042 12.2395 29.2595 11.6443 28.0705 10.454C26.8815 9.26366 26.287 7.81817 26.287 6.1175C26.287 4.41717 26.8822 2.9725 28.0725 1.7835C29.2628 0.594499 30.7082 0 32.4085 0C34.1092 0 35.554 0.595165 36.743 1.7855C37.9317 2.97583 38.526 4.42133 38.526 6.122C38.526 7.82233 37.9308 9.267 36.7405 10.456C35.5502 11.645 34.1048 12.2395 32.4045 12.2395ZM32.4075 9.06C33.2408 9.06 33.9392 8.77817 34.5025 8.2145C35.0655 7.65117 35.347 6.953 35.347 6.12C35.347 5.29366 35.065 4.597 34.501 4.03C33.9373 3.463 33.2388 3.1795 32.4055 3.1795C31.5722 3.1795 30.874 3.463 30.311 4.03C29.748 4.59667 29.4665 5.29516 29.4665 6.1255C29.4665 6.95583 29.7483 7.6525 30.312 8.2155C30.8757 8.7785 31.5742 9.06 32.4075 9.06ZM1.7035 24.6945C1.2225 24.6945 0.818333 24.5308 0.491 24.2035C0.163667 23.8762 0 23.4722 0 22.9915V21.4915C0 20.4842 0.260667 19.5642 0.782 18.7315C1.30333 17.8988 2.01883 17.2453 2.9285 16.771C4.36017 15.9977 5.85 15.4177 7.398 15.031C8.94567 14.6443 10.5438 14.451 12.1925 14.451C12.4402 14.451 12.6655 14.4593 12.8685 14.476C13.0715 14.4927 13.2972 14.501 13.5455 14.501C13.9695 14.5187 14.3372 14.6913 14.6485 15.019C14.9598 15.347 15.1155 15.7273 15.1155 16.16C15.1155 16.5927 14.9638 16.9518 14.6605 17.2375C14.3572 17.5235 13.9895 17.6665 13.5575 17.6665H12.1195C10.7992 17.6998 9.51133 17.8562 8.256 18.1355C7.00067 18.4145 5.81033 18.8468 4.685 19.4325C4.293 19.6445 3.99183 19.9378 3.7815 20.3125C3.5715 20.6875 3.4785 21.0885 3.5025 21.5155H8.964C9.38567 21.5155 9.74317 21.664 10.0365 21.961C10.3295 22.2583 10.476 22.6427 10.476 23.114C10.476 23.5613 10.3243 23.9367 10.021 24.24C9.71733 24.543 9.34117 24.6945 8.8925 24.6945H1.7035ZM12.1895 12.2395C10.4888 12.2395 9.044 11.6443 7.855 10.454C6.66633 9.26366 6.072 7.81817 6.072 6.1175C6.072 4.41717 6.66717 2.9725 7.8575 1.7835C9.04783 0.594499 10.4932 0 12.1935 0C13.8938 0 15.3385 0.595165 16.5275 1.7855C17.7165 2.97583 18.311 4.42133 18.311 6.122C18.311 7.82233 17.7158 9.267 16.5255 10.456C15.3352 11.645 13.8898 12.2395 12.1895 12.2395ZM12.1925 9.06C13.0258 9.06 13.724 8.77817 14.287 8.2145C14.85 7.65117 15.1315 6.953 15.1315 6.12C15.1315 5.29366 14.8497 4.597 14.286 4.03C13.7223 3.463 13.0238 3.1795 12.1905 3.1795C11.3572 3.1795 10.6588 3.463 10.0955 4.03C9.5325 4.59667 9.251 5.29516 9.251 6.1255C9.251 6.95583 9.533 7.6525 10.097 8.2155C10.6607 8.7785 11.3592 9.06 12.1925 9.06ZM22.2945 30.209C21.3072 30.209 20.4598 29.8557 19.7525 29.149C19.0452 28.4427 18.6915 27.5933 18.6915 26.601V20.609C18.6915 19.6233 19.0467 18.7797 19.757 18.078C20.4677 17.376 21.3187 17.025 22.31 17.025C23.3013 17.025 24.1465 17.376 24.8455 18.078C25.5448 18.7797 25.8945 19.6233 25.8945 20.609V26.601C25.8945 27.5933 25.542 28.4427 24.837 29.149C24.132 29.8557 23.2845 30.209 22.2945 30.209ZM22.301 40.61C21.993 40.61 21.7232 40.4937 21.4915 40.261C21.2595 40.0287 21.1435 39.7598 21.1435 39.4545V36.462C18.8942 36.2047 16.9698 35.2785 15.3705 33.6835C13.7715 32.0882 12.8433 30.1452 12.586 27.8545C12.5447 27.5558 12.634 27.2863 12.854 27.046C13.074 26.8053 13.3372 26.685 13.6435 26.685C13.9672 26.685 14.2467 26.8068 14.482 27.0505C14.7173 27.2945 14.8715 27.5737 14.9445 27.888C15.2272 29.675 16.0625 31.178 17.4505 32.397C18.8385 33.6157 20.4547 34.225 22.299 34.225C24.1433 34.225 25.7595 33.6157 27.1475 32.397C28.5355 31.178 29.3708 29.675 29.6535 27.888C29.7185 27.5737 29.8698 27.2945 30.1075 27.0505C30.3452 26.8068 30.6293 26.685 30.96 26.685C31.26 26.685 31.5207 26.8053 31.742 27.046C31.9633 27.2863 32.0533 27.5558 32.012 27.8545C31.7467 30.1532 30.8165 32.0982 29.2215 33.6895C27.6262 35.2805 25.7038 36.2047 23.4545 36.462V39.4665C23.4545 39.7745 23.34 40.0422 23.111 40.2695C22.882 40.4965 22.612 40.61 22.301 40.61Z" fill="white"/>
</svg>
