<svg width="23" height="36" viewBox="0 0 23 36" fill="none" xmlns="http://www.w3.org/2000/svg">
<path d="M9.263 17.19L3.163 33.9665L2.9895 34.264L1.6915 35.5C1.42617 35.7573 1.13583 35.823 0.820499 35.697C0.505165 35.5713 0.315 35.3357 0.25 34.99L0 33.3185C0 33.3438 0.0166667 33.2112 0.05 32.9205L6.362 15.5705C6.76067 15.9852 7.20883 16.319 7.7065 16.572C8.2045 16.8253 8.72333 17.0313 9.263 17.19ZM11.1915 16.4665C9.47317 16.4665 8.00967 15.8622 6.801 14.6535C5.59233 13.4448 4.988 11.9813 4.988 10.263C4.988 8.81533 5.40633 7.53583 6.243 6.4245C7.07967 5.31317 8.18533 4.598 9.56 4.279V1.6315C9.56 1.16383 9.71483 0.774999 10.0245 0.464999C10.3338 0.154999 10.722 0 11.189 0C11.656 0 12.045 0.154999 12.356 0.464999C12.6673 0.774999 12.823 1.16383 12.823 1.6315V4.279C14.1977 4.598 15.3033 5.31317 16.14 6.4245C16.9767 7.53583 17.395 8.81533 17.395 10.263C17.395 11.9813 16.7907 13.4448 15.582 14.6535C14.3733 15.8622 12.9098 16.4665 11.1915 16.4665ZM11.193 13.1915C12.0013 13.1915 12.6912 12.9053 13.2625 12.333C13.8342 11.7607 14.12 11.0702 14.12 10.2615C14.12 9.45317 13.8338 8.76333 13.2615 8.192C12.6892 7.62033 11.9987 7.3345 11.19 7.3345C10.3817 7.3345 9.69183 7.62067 9.1205 8.193C8.54883 8.76533 8.263 9.45584 8.263 10.2645C8.263 11.0728 8.54917 11.7627 9.1215 12.334C9.69383 12.9057 10.3843 13.1915 11.193 13.1915ZM13.02 17.24C13.5597 17.0813 14.0868 16.8753 14.6015 16.622C15.1158 16.369 15.5723 16.0352 15.971 15.6205L22.333 32.9205C22.3997 33.0538 22.3997 33.1865 22.333 33.3185L22.133 34.99C22.068 35.3357 21.8778 35.5713 21.5625 35.697C21.2472 35.823 20.9568 35.7573 20.6915 35.5L19.3935 34.264C19.2778 34.148 19.22 34.0488 19.22 33.9665L13.02 17.24Z" fill="white"/>
</svg>
