<svg width="36" height="20" viewBox="0 0 36 20" fill="none" xmlns="http://www.w3.org/2000/svg">
<path d="M3.4065 6.0055V14.603C3.4065 15.092 3.242 15.5002 2.913 15.8275C2.584 16.1548 2.17783 16.3185 1.6945 16.3185C1.21117 16.3185 0.808 16.1548 0.485 15.8275C0.161667 15.5002 0 15.092 0 14.603V1.703C0 1.22233 0.163667 0.818334 0.491 0.491C0.818333 0.163667 1.2225 0 1.7035 0H14.2535C14.7342 0 15.1382 0.1645 15.4655 0.4935C15.7928 0.8225 15.9565 1.22867 15.9565 1.712C15.9565 2.20333 15.7928 2.6105 15.4655 2.9335C15.1382 3.25683 14.7342 3.4185 14.2535 3.4185H5.6555L18.501 16.276L33.0675 1.7095C33.4075 1.36983 33.8053 1.20833 34.261 1.225C34.7167 1.24167 35.121 1.41983 35.474 1.7595C35.8007 2.0995 35.964 2.49733 35.964 2.953C35.964 3.409 35.7942 3.80683 35.4545 4.1465L20.888 18.713C20.5483 19.053 20.1712 19.2995 19.7565 19.4525C19.3422 19.6058 18.9237 19.6825 18.501 19.6825C18.0787 19.6825 17.6602 19.6058 17.2455 19.4525C16.8312 19.2995 16.454 19.053 16.114 18.713L3.4065 6.0055Z" fill="white"/>
</svg>
