<svg width="40" height="29" viewBox="0 0 40 29" fill="none" xmlns="http://www.w3.org/2000/svg">
<path d="M29.165 24.2427L36.9095 16.4862C37.2495 16.1462 37.6513 15.9845 38.115 16.0012C38.579 16.0178 38.9873 16.1962 39.34 16.5362C39.667 16.8762 39.8285 17.274 39.8245 17.7297C39.8205 18.1853 39.6485 18.5832 39.3085 18.9232L30.3585 27.8612C30.0188 28.2012 29.619 28.3732 29.159 28.3772C28.6993 28.3812 28.2995 28.2132 27.9595 27.8732L22.9715 22.8732C22.6238 22.5332 22.45 22.1353 22.45 21.6797C22.45 21.224 22.6238 20.8262 22.9715 20.4862C23.3115 20.1462 23.7093 19.9845 24.165 20.0012C24.621 20.0178 25.0188 20.1795 25.3585 20.4862L29.165 24.2427ZM29.165 8.24267L36.9095 0.486169C37.2495 0.146169 37.6513 -0.0154984 38.115 0.00116822C38.579 0.0178349 38.9873 0.196169 39.34 0.536169C39.667 0.876169 39.8285 1.274 39.8245 1.72967C39.8205 2.18534 39.6485 2.58317 39.3085 2.92317L30.3585 11.8612C30.0188 12.2012 29.619 12.3732 29.159 12.3772C28.6993 12.3812 28.2995 12.2132 27.9595 11.8732L22.9715 6.87317C22.6238 6.53317 22.45 6.13534 22.45 5.67967C22.45 5.224 22.6238 4.82617 22.9715 4.48617C23.3115 4.14617 23.7093 3.9845 24.165 4.00117C24.621 4.01783 25.0188 4.1795 25.3585 4.48617L29.165 8.24267ZM1.703 25.1832C1.22233 25.1832 0.818333 25.0185 0.491 24.6892C0.163667 24.3602 0 23.954 0 23.4707C0 22.9877 0.163667 22.5845 0.491 22.2612C0.818333 21.9378 1.22233 21.7762 1.703 21.7762H16.5C16.9807 21.7762 17.3847 21.9408 17.712 22.2702C18.0393 22.5992 18.203 23.0053 18.203 23.4887C18.203 23.9717 18.0393 24.3748 17.712 24.6982C17.3847 25.0215 16.9807 25.1832 16.5 25.1832H1.703ZM1.703 9.18317C1.22233 9.18317 0.818333 9.0185 0.491 8.68917C0.163667 8.36017 0 7.954 0 7.47067C0 6.98767 0.163667 6.5845 0.491 6.26117C0.818333 5.93784 1.22233 5.77617 1.703 5.77617H16.5C16.9807 5.77617 17.3847 5.94084 17.712 6.27017C18.0393 6.59917 18.203 7.00533 18.203 7.48867C18.203 7.97167 18.0393 8.37483 17.712 8.69817C17.3847 9.0215 16.9807 9.18317 16.5 9.18317H1.703Z" fill="#010204"/>
</svg>
