<svg width="45" height="33" viewBox="0 0 45 33" fill="none" xmlns="http://www.w3.org/2000/svg">
<path d="M10.849 32.56C7.84333 32.56 5.28383 31.5083 3.1705 29.405C1.05683 27.3017 0 24.745 0 21.735C0 19.087 0.837333 16.7498 2.512 14.7235C4.18667 12.6972 6.32717 11.476 8.9335 11.06C9.63217 7.80266 11.2315 5.145 13.7315 3.087C16.2315 1.029 19.1138 0 22.3785 0C26.1415 0 29.3262 1.36233 31.9325 4.087C34.5392 6.81167 35.8743 10.086 35.938 13.91V15.11C38.362 15.115 40.4033 15.9465 42.062 17.6045C43.7207 19.2628 44.55 21.3397 44.55 23.835C44.55 26.222 43.6927 28.2728 41.978 29.9875C40.263 31.7025 38.212 32.56 35.825 32.56H10.849ZM10.849 29.1535H35.801C37.2633 29.1535 38.5193 28.6302 39.569 27.5835C40.6187 26.5365 41.1435 25.279 41.1435 23.811C41.1435 22.343 40.6187 21.0855 39.569 20.0385C38.5193 18.9918 37.2633 18.4685 35.801 18.4685H32.5435V14.137C32.5435 11.14 31.5402 8.60433 29.5335 6.53C27.5268 4.45567 25.0758 3.4185 22.1805 3.4185C19.2675 3.4185 16.8018 4.4705 14.7835 6.5745C12.7655 8.6785 11.7565 11.2432 11.7565 14.2685H10.699C8.662 14.2685 6.93733 14.9828 5.525 16.4115C4.11267 17.8398 3.4065 19.6055 3.4065 21.7085C3.4065 23.7782 4.12933 25.5365 5.575 26.9835C7.02067 28.4302 8.77867 29.1535 10.849 29.1535Z" fill="#010204"/>
</svg>
