<svg width="44" height="44" viewBox="0 0 44 44" fill="none" xmlns="http://www.w3.org/2000/svg">
<path d="M6.63898 19.964C6.63898 23.3127 7.53914 26.3478 9.33948 29.0695C11.1398 31.7912 13.5563 33.8028 16.589 35.1045C17.021 35.3188 17.3266 35.6437 17.506 36.079C17.6853 36.514 17.663 36.9348 17.439 37.3415C17.1483 37.7892 16.7525 38.0753 16.2515 38.2C15.7505 38.3247 15.2546 38.267 14.764 38.027C11.209 36.411 8.39831 33.9767 6.33198 30.724C4.26564 27.471 3.23248 23.8843 3.23248 19.964C3.23248 18.9533 3.30781 17.9382 3.45848 16.9185C3.60914 15.8988 3.85581 14.9003 4.19848 13.923L2.31848 15.001C1.93581 15.217 1.54681 15.2555 1.15148 15.1165C0.756145 14.9772 0.450478 14.7122 0.234478 14.3215C0.0028115 13.9072 -0.0571885 13.4742 0.0544782 13.0225C0.166478 12.5705 0.429812 12.2285 0.844478 11.9965L6.90648 8.485C7.32081 8.261 7.75598 8.207 8.21198 8.323C8.66764 8.43867 9.00748 8.69983 9.23148 9.1065L12.7195 15.1185C12.9511 15.5328 13.0091 15.968 12.8935 16.424C12.7775 16.8797 12.5121 17.2195 12.0975 17.4435C11.6831 17.6755 11.2301 17.7395 10.7385 17.6355C10.2468 17.5315 9.92481 17.2602 9.77248 16.8215L7.93348 13.698C7.51448 14.7023 7.19398 15.7257 6.97198 16.768C6.74998 17.8103 6.63898 18.8757 6.63898 19.964ZM23.2085 3.4065C21.4361 3.4065 19.7286 3.6865 18.086 4.2465C16.4436 4.80683 14.9243 5.6265 13.528 6.7055C13.0976 6.98017 12.6501 7.09117 12.1855 7.0385C11.7211 6.98617 11.377 6.75267 11.153 6.338C10.8956 5.89033 10.827 5.40717 10.947 4.8885C11.067 4.37017 11.3381 3.97367 11.7605 3.699C13.4301 2.504 15.2358 1.58867 17.1775 0.953C19.1191 0.317667 21.1295 0 23.2085 0C26.0368 0 28.723 0.569666 31.267 1.709C33.8113 2.84867 36.0255 4.462 37.9095 6.549V4.3805C37.9095 3.92317 38.0751 3.56083 38.4065 3.2935C38.7375 3.02617 39.1396 2.8925 39.613 2.8925C40.102 2.8925 40.5081 3.054 40.8315 3.377C41.1545 3.70033 41.316 4.1065 41.316 4.5955V11.5955C41.316 12.0848 41.1545 12.491 40.8315 12.814C40.5081 13.1373 40.102 13.299 39.613 13.299H32.613C32.1236 13.299 31.7175 13.1373 31.3945 12.814C31.0711 12.491 30.9095 12.0848 30.9095 11.5955C30.9095 11.1065 31.0711 10.7003 31.3945 10.377C31.7175 10.054 32.1236 9.8925 32.613 9.8925H36.265C34.7126 7.85183 32.792 6.26067 30.503 5.119C28.214 3.97733 25.7825 3.4065 23.2085 3.4065ZM35.653 30.888C37.2176 29.1313 38.3346 27.1428 39.004 24.9225C39.6736 22.7018 39.8411 20.437 39.5065 18.128C39.4795 17.647 39.611 17.2218 39.901 16.8525C40.1906 16.4835 40.5675 16.299 41.0315 16.299C41.5538 16.299 41.9996 16.5018 42.369 16.9075C42.738 17.3135 42.944 17.7903 42.987 18.338C43.2136 20.9103 42.9743 23.4058 42.269 25.8245C41.5633 28.2428 40.4043 30.4542 38.792 32.4585C37.3653 34.2428 35.7071 35.7267 33.8175 36.91C31.9281 38.0933 29.874 38.9302 27.655 39.4205L29.4595 40.473C29.8421 40.6887 30.0631 41.0165 30.1225 41.4565C30.1821 41.8965 30.1 42.3157 29.876 42.714C29.644 43.1287 29.3085 43.3837 28.8695 43.479C28.4301 43.574 28.0033 43.5097 27.589 43.286L21.501 39.786C21.0863 39.554 20.823 39.2102 20.711 38.7545C20.5993 38.2985 20.6553 37.8633 20.879 37.449L24.379 31.449C24.603 31.0423 24.9448 30.781 25.4045 30.665C25.8645 30.5493 26.3016 30.6033 26.716 30.827C27.1226 31.059 27.3756 31.3925 27.475 31.8275C27.574 32.2628 27.5116 32.6837 27.288 33.09L25.4725 36.328C27.4531 36.0883 29.317 35.4995 31.064 34.5615C32.811 33.6235 34.3406 32.399 35.653 30.888Z" fill="#010204"/>
</svg>
