<svg width="45" height="45" viewBox="0 0 45 45" fill="none" xmlns="http://www.w3.org/2000/svg">
<path d="M12.155 29.7945H25.0595C26.3275 29.7945 27.3945 29.3458 28.2605 28.4485C29.1265 27.5508 29.5595 26.4678 29.5595 25.1995C29.5595 23.9548 29.1185 22.8972 28.2365 22.0265C27.3545 21.1558 26.2902 20.7045 25.0435 20.6725H24.5935L24.5435 20.2225C24.2462 18.7022 23.4972 17.4633 22.2965 16.506C21.0955 15.5483 19.7187 15.0695 18.166 15.0695C16.909 15.0695 15.7657 15.4012 14.736 16.0645C13.706 16.7278 12.9077 17.6142 12.341 18.7235L12.191 18.9735L11.891 19.0235C10.4553 19.1008 9.23767 19.6568 8.238 20.6915C7.23867 21.7265 6.739 22.9605 6.739 24.3935C6.739 25.9025 7.2655 27.18 8.3185 28.226C9.37183 29.2717 10.6507 29.7945 12.155 29.7945ZM12.251 26.651C11.585 26.651 11.0237 26.4302 10.567 25.9885C10.1107 25.5468 9.8825 24.991 9.8825 24.321C9.8825 23.651 10.1107 23.0923 10.567 22.645C11.0237 22.1973 11.585 21.9735 12.251 21.9735H14.239V22.0575C14.263 20.9925 14.6557 20.0855 15.417 19.3365C16.1783 18.5875 17.0933 18.213 18.162 18.213C19.239 18.213 20.1638 18.6 20.9365 19.374C21.7092 20.1477 22.0955 21.082 22.0955 22.177V23.7945H24.988C25.402 23.7945 25.7435 23.9293 26.0125 24.199C26.2815 24.4687 26.416 24.811 26.416 25.226C26.416 25.641 26.2815 25.9823 26.0125 26.25C25.7435 26.5173 25.402 26.651 24.988 26.651H12.251ZM14.0315 44.717C13.5505 44.717 13.1463 44.553 12.819 44.225C12.4917 43.8967 12.328 43.4865 12.328 42.9945C12.328 42.5088 12.4912 42.1048 12.8175 41.7825C13.1442 41.4598 13.5488 41.2985 14.0315 41.2985H15.452V36.4575H3.4185C2.49517 36.4575 1.6945 36.1197 1.0165 35.444C0.338833 34.7687 0 33.971 0 33.051V11.825C0 10.9017 0.338833 10.101 1.0165 9.423C1.6945 8.74533 2.49517 8.4065 3.4185 8.4065H32.892C33.8153 8.4065 34.616 8.74533 35.294 9.423C35.9717 10.101 36.3105 10.9017 36.3105 11.825V33.051C36.3105 33.971 35.9717 34.7687 35.294 35.444C34.616 36.1197 33.8153 36.4575 32.892 36.4575H20.8585V41.2985H22.229C22.7117 41.2985 23.1162 41.4655 23.4425 41.7995C23.7692 42.1332 23.9325 42.5413 23.9325 43.024C23.9325 43.5063 23.7665 43.9092 23.4345 44.2325C23.1028 44.5555 22.697 44.717 22.217 44.717H14.0315ZM41.3105 24.3605V3.4065H10.0465C9.55783 3.4065 9.14983 3.242 8.8225 2.913C8.49517 2.58367 8.3315 2.1775 8.3315 1.6945C8.3315 1.21116 8.49517 0.807833 8.8225 0.4845C9.14983 0.1615 9.55783 0 10.0465 0H41.3105C42.2222 0 43.0178 0.339831 43.6975 1.0195C44.3772 1.69916 44.717 2.49483 44.717 3.4065V24.3605C44.717 24.8415 44.5525 25.2457 44.2235 25.573C43.8945 25.9003 43.4883 26.064 43.005 26.064C42.5217 26.064 42.1185 25.9003 41.7955 25.573C41.4722 25.2457 41.3105 24.8415 41.3105 24.3605ZM3.4185 33.051H32.892V11.825H3.4185V33.051Z" fill="#010204"/>
</svg>
