<svg width="44" height="36" viewBox="0 0 44 36" fill="none" xmlns="http://www.w3.org/2000/svg">
<path d="M10.8909 27.4165V34.049C10.8909 34.53 10.7243 34.9342 10.3909 35.2615C10.0579 35.5888 9.64992 35.7525 9.16692 35.7525C8.68359 35.7525 8.28025 35.5888 7.95692 35.2615C7.63392 34.9342 7.47242 34.53 7.47242 34.049V27.4165H5.02542C4.54475 27.4165 4.14075 27.252 3.81342 26.923C3.48609 26.594 3.32242 26.1838 3.32242 25.6925C3.32242 25.2092 3.48609 24.806 3.81342 24.483C4.14075 24.1597 4.54475 23.998 5.02542 23.998H7.47242V14.272L2.70692 17.871C2.32425 18.1773 1.91175 18.2995 1.46942 18.2375C1.02709 18.1758 0.656587 17.9543 0.35792 17.573C0.0595866 17.2077 -0.0522466 16.7952 0.02242 16.3355C0.0967534 15.8758 0.320587 15.4967 0.69392 15.198L19.5864 0.745999C19.8928 0.513999 20.2214 0.331666 20.5724 0.198999C20.9234 0.0663324 21.2784 0 21.6374 0C21.9964 0 22.3514 0.0663324 22.7024 0.198999C23.0534 0.331666 23.3821 0.513999 23.6884 0.745999L42.6049 15.198C42.9779 15.4967 43.1894 15.8758 43.2394 16.3355C43.2894 16.7952 43.1693 17.2077 42.8789 17.573C42.5803 17.9543 42.2078 18.1758 41.7614 18.2375C41.3151 18.2995 40.9046 18.1773 40.5299 17.871L35.7524 14.21V23.998H38.2114C38.6921 23.998 39.0961 24.1625 39.4234 24.4915C39.7508 24.8205 39.9144 25.2267 39.9144 25.71C39.9144 26.2013 39.7508 26.6087 39.4234 26.932C39.0961 27.255 38.6921 27.4165 38.2114 27.4165H35.7524V34.049C35.7524 34.53 35.5879 34.9342 35.2589 35.2615C34.9299 35.5888 34.5238 35.7525 34.0404 35.7525C33.5574 35.7525 33.1543 35.5888 32.8309 35.2615C32.5076 34.9342 32.3459 34.53 32.3459 34.049V27.4165H23.3409V34.061C23.3409 34.542 23.1743 34.9442 22.8409 35.2675C22.5079 35.5908 22.0999 35.7525 21.6169 35.7525C21.1336 35.7525 20.7323 35.5888 20.4129 35.2615C20.0936 34.9342 19.9339 34.53 19.9339 34.049V27.4165H10.8909ZM10.8909 23.998H19.9339V4.724L10.8909 11.637V23.998ZM23.3409 23.998H32.3459V11.637L23.3409 4.712V23.998Z" fill="#010204"/>
</svg>
