<svg width="41" height="41" viewBox="0 0 41 41" fill="none" xmlns="http://www.w3.org/2000/svg">
<path d="M13.227 40.466C12.282 40.466 11.478 40.1345 10.815 39.4715C10.152 38.8085 9.8205 38.0045 9.8205 37.0595V30.6455H3.4065C2.4615 30.6455 1.6575 30.314 0.9945 29.651C0.3315 28.988 0 28.184 0 27.239V13.239C0 12.2907 0.3315 11.4838 0.9945 10.8185C1.6575 10.1532 2.4615 9.8205 3.4065 9.8205H9.8205V3.4185C9.8205 2.47017 10.152 1.66333 10.815 0.998001C11.478 0.332668 12.282 0 13.227 0H27.227C28.1753 0 28.9822 0.332668 29.6475 0.998001C30.3128 1.66333 30.6455 2.47017 30.6455 3.4185V9.8205H37.0475C37.9958 9.8205 38.8027 10.1532 39.468 10.8185C40.1333 11.4838 40.466 12.2907 40.466 13.239V27.239C40.466 28.184 40.1333 28.988 39.468 29.651C38.8027 30.314 37.9958 30.6455 37.0475 30.6455H30.6455V37.0595C30.6455 38.0045 30.3128 38.8085 29.6475 39.4715C28.9822 40.1345 28.1753 40.466 27.227 40.466H13.227ZM3.3225 18.679H14.227C14.4953 18.679 14.7532 18.7432 15.0005 18.8715C15.2478 18.9998 15.4385 19.1683 15.5725 19.377L17.741 22.6855L20.6695 13.8965C20.7882 13.5725 20.9907 13.3027 21.277 13.087C21.5633 12.871 21.8858 12.763 22.2445 12.763C22.5115 12.763 22.7587 12.8343 22.986 12.977C23.2133 13.1197 23.4088 13.3015 23.5725 13.5225L27.003 18.679H37.1435V13.1435H29.026C28.545 13.1435 28.1408 12.9798 27.8135 12.6525C27.4862 12.3252 27.3225 11.921 27.3225 11.44V3.3225H13.1435V11.44C13.1435 11.921 12.9775 12.3252 12.6455 12.6525C12.3138 12.9798 11.908 13.1435 11.428 13.1435H3.3225V18.679ZM3.3225 21.9065V27.3225H11.428C11.908 27.3225 12.3138 27.4885 12.6455 27.8205C12.9775 28.1522 13.1435 28.558 13.1435 29.038V37.1435H27.3225V29.038C27.3225 28.558 27.4862 28.1522 27.8135 27.8205C28.1408 27.4885 28.545 27.3225 29.026 27.3225H37.1435V21.9065H26.227C25.9443 21.9065 25.693 21.8358 25.473 21.6945C25.2533 21.5532 25.0602 21.3745 24.8935 21.1585L22.713 17.9L19.7345 26.689C19.6195 27.013 19.4168 27.283 19.1265 27.499C18.8365 27.7147 18.52 27.8225 18.177 27.8225C17.8943 27.8225 17.643 27.7518 17.423 27.6105C17.2033 27.4695 17.0268 27.287 16.8935 27.063L13.451 21.9065H3.3225Z" fill="white"/>
</svg>
