<svg width="41" height="33" viewBox="0 0 41 33" fill="none" xmlns="http://www.w3.org/2000/svg">
<path d="M26.001 22.461V24.461C26.001 24.822 26.1197 25.1207 26.357 25.357C26.5943 25.593 26.8943 25.711 27.257 25.711C27.6117 25.711 27.9077 25.593 28.145 25.357C28.3823 25.1207 28.501 24.822 28.501 24.461V22.461H30.551C31.0327 22.461 31.4365 22.3028 31.7625 21.9865C32.0882 21.6702 32.251 21.2783 32.251 20.811V11.861C32.251 11.3793 32.0882 10.9757 31.7625 10.65C31.4365 10.324 31.0327 10.161 30.551 10.161H24.251C23.7763 10.161 23.3243 10.324 22.895 10.65C22.4657 10.9757 22.251 11.3793 22.251 11.861V20.811C22.251 21.2783 22.4657 21.6702 22.895 21.9865C23.3243 22.3028 23.7763 22.461 24.251 22.461H26.001ZM10.859 18.011H15.859V21.211C15.859 21.572 15.9775 21.8707 16.2145 22.107C16.4518 22.343 16.7518 22.461 17.1145 22.461C17.4695 22.461 17.7657 22.343 18.003 22.107C18.2403 21.8707 18.359 21.572 18.359 21.211V11.411C18.359 11.05 18.2383 10.7513 17.997 10.515C17.7557 10.279 17.4557 10.161 17.097 10.161C16.7383 10.161 16.4423 10.279 16.209 10.515C15.9757 10.7513 15.859 11.05 15.859 11.411V15.511H10.859V11.411C10.859 11.05 10.7383 10.7513 10.497 10.515C10.2557 10.279 9.95567 10.161 9.597 10.161C9.23833 10.161 8.94233 10.279 8.709 10.515C8.47567 10.7513 8.359 11.05 8.359 11.411V21.211C8.359 21.572 8.4775 21.8707 8.7145 22.107C8.95183 22.343 9.24983 22.461 9.6085 22.461C9.9675 22.461 10.2657 22.343 10.503 22.107C10.7403 21.8707 10.859 21.572 10.859 21.211V18.011ZM24.751 19.961V12.661H29.751V19.961H24.751ZM3.4065 32.61C2.4865 32.61 1.68883 32.2722 1.0135 31.5965C0.337834 30.9212 0 30.1235 0 29.2035V3.4185C0 2.49517 0.337834 1.69466 1.0135 1.017C1.68883 0.338998 2.4865 0 3.4065 0H37.1915C38.1148 0 38.9153 0.338998 39.593 1.017C40.271 1.69466 40.61 2.49517 40.61 3.4185V29.2035C40.61 30.1235 40.271 30.9212 39.593 31.5965C38.9153 32.2722 38.1148 32.61 37.1915 32.61H3.4065ZM3.4065 29.2035H37.1915V3.4185H3.4065V29.2035Z" fill="#010204"/>
</svg>
