<svg width="37" height="41" viewBox="0 0 37 41" fill="none" xmlns="http://www.w3.org/2000/svg">
<path d="M10.659 22.335L14.6705 18.323C14.9628 18.031 15.111 17.6767 15.115 17.26C15.1187 16.8433 14.979 16.485 14.696 16.185C14.387 15.885 14.0228 15.735 13.6035 15.735C13.1838 15.735 12.8228 15.885 12.5205 16.185L7.576 21.1295C7.23633 21.4802 7.0665 21.8845 7.0665 22.3425C7.0665 22.8005 7.23633 23.1998 7.576 23.5405L12.5205 28.485C12.8205 28.785 13.1788 28.935 13.5955 28.935C14.0122 28.935 14.3772 28.785 14.6905 28.485C14.9772 28.185 15.1187 27.835 15.115 27.435C15.111 27.035 14.959 26.685 14.659 26.385L10.659 22.335ZM25.989 22.335L21.9275 26.397C21.6352 26.689 21.487 27.035 21.483 27.435C21.4793 27.835 21.619 28.185 21.902 28.485C22.211 28.785 22.5752 28.935 22.9945 28.935C23.4142 28.935 23.7752 28.785 24.0775 28.485L29.072 23.5405C29.4117 23.1968 29.5815 22.796 29.5815 22.338C29.5815 21.88 29.4117 21.4772 29.072 21.1295L24.1275 16.185C23.8275 15.885 23.4775 15.735 23.0775 15.735C22.6775 15.735 22.3208 15.885 22.0075 16.185C21.7208 16.485 21.5793 16.8453 21.583 17.266C21.587 17.6867 21.739 18.043 22.039 18.335L25.989 22.335ZM3.4065 40.61C2.46983 40.61 1.66783 40.2765 1.0005 39.6095C0.3335 38.9422 0 38.1402 0 37.2035V7.4185C0 6.4785 0.3335 5.67383 1.0005 5.0045C1.66783 4.33483 2.46983 4 3.4065 4H13.3575C13.5722 2.83333 14.1415 1.875 15.0655 1.125C15.9892 0.375 17.067 0 18.299 0C19.531 0 20.6088 0.375 21.5325 1.125C22.4565 1.875 23.0258 2.83333 23.2405 4H33.1915C34.1315 4 34.9362 4.33483 35.6055 5.0045C36.2752 5.67383 36.61 6.4785 36.61 7.4185V37.2035C36.61 38.1402 36.2752 38.9422 35.6055 39.6095C34.9362 40.2765 34.1315 40.61 33.1915 40.61H3.4065ZM3.4065 37.2035H33.1915V7.4185H3.4065V37.2035ZM18.299 6.5325C18.7933 6.5325 19.2205 6.3525 19.5805 5.9925C19.9405 5.6325 20.1205 5.20533 20.1205 4.711C20.1205 4.21667 19.9405 3.7895 19.5805 3.4295C19.2205 3.0695 18.7933 2.8895 18.299 2.8895C17.8047 2.8895 17.3775 3.0695 17.0175 3.4295C16.6575 3.7895 16.4775 4.21667 16.4775 4.711C16.4775 5.20533 16.6575 5.6325 17.0175 5.9925C17.3775 6.3525 17.8047 6.5325 18.299 6.5325Z" fill="white"/>
</svg>
