<svg width="33" height="38" viewBox="0 0 33 38" fill="none" xmlns="http://www.w3.org/2000/svg">
<path d="M16.1785 37.1327C11.6618 37.1327 7.83617 35.5652 4.7015 32.4302C1.56717 29.2956 0 25.4699 0 20.9532C0 17.0972 1.19167 13.3439 3.575 9.69324C5.95833 6.04257 9.23733 2.91807 13.412 0.319739C14.0503 -0.094928 14.7012 -0.106261 15.3645 0.285739C16.0275 0.677406 16.359 1.27307 16.359 2.07274V5.54774C16.359 6.63174 16.7333 7.5404 17.482 8.27374C18.2307 9.00707 19.1465 9.37374 20.2295 9.37374C20.8055 9.37374 21.3418 9.2529 21.8385 9.01124C22.3352 8.76957 22.7757 8.4064 23.16 7.92174C23.4417 7.5924 23.7673 7.36674 24.137 7.24474C24.5067 7.12274 24.8575 7.16974 25.1895 7.38574C27.4222 8.92574 29.1753 10.8911 30.449 13.2817C31.7223 15.6721 32.359 18.2292 32.359 20.9532C32.359 25.4699 30.7915 29.2956 27.6565 32.4302C24.5215 35.5652 20.6955 37.1327 16.1785 37.1327ZM3.4185 20.9532C3.4185 22.9259 3.85367 24.7834 4.724 26.5257C5.59433 28.2681 6.81567 29.7279 8.388 30.9052C8.25467 30.5389 8.15467 30.1609 8.088 29.7712C8.02133 29.3816 7.988 28.9987 7.988 28.6227C8.028 27.5961 8.25 26.6359 8.654 25.7422C9.058 24.8489 9.63133 24.0309 10.374 23.2882L16.1795 17.5707L21.997 23.2882C22.7397 24.0309 23.313 24.8489 23.717 25.7422C24.121 26.6359 24.339 27.5961 24.371 28.6227C24.371 28.9987 24.3377 29.3816 24.271 29.7712C24.2043 30.1609 24.1083 30.5389 23.983 30.9052C25.5393 29.7279 26.7567 28.2681 27.635 26.5257C28.5133 24.7834 28.9525 22.9259 28.9525 20.9532C28.9525 19.2169 28.5847 17.5159 27.849 15.8502C27.1133 14.1846 26.0575 12.6519 24.6815 11.2522C23.9815 11.7282 23.2508 12.1019 22.4895 12.3732C21.7282 12.6446 20.9747 12.7802 20.229 12.7802C18.22 12.7802 16.5428 12.1146 15.1975 10.7832C13.8522 9.45157 13.1357 7.75174 13.048 5.68374V4.68374C10.094 6.83374 7.75067 9.37774 6.018 12.3157C4.285 15.2534 3.4185 18.1326 3.4185 20.9532ZM16.1795 22.3447L12.764 25.7227C12.3033 26.1751 11.954 26.6736 11.716 27.2182C11.478 27.7632 11.359 28.3574 11.359 29.0007C11.359 30.3174 11.827 31.4321 12.763 32.3447C13.6993 33.2577 14.8388 33.7142 16.1815 33.7142C17.5245 33.7142 18.6633 33.2569 19.598 32.3422C20.5327 31.4276 21 30.3114 21 28.9937C21 28.3587 20.8813 27.7687 20.644 27.2237C20.4063 26.6784 20.0623 26.1796 19.612 25.7272L16.1795 22.3447Z" fill="#010204"/>
</svg>
