<svg width="41" height="34" viewBox="0 0 41 34" fill="none" xmlns="http://www.w3.org/2000/svg">
<path d="M31.025 27.8291L33.464 30.3561C33.763 30.6654 33.9148 31.0356 33.9195 31.4666C33.9238 31.8979 33.7407 32.2934 33.37 32.6531C33.031 32.9891 32.6268 33.1571 32.1575 33.1571C31.6882 33.1571 31.2835 32.9871 30.9435 32.6471L25.7155 27.3811C25.3675 27.0321 25.1935 26.6216 25.1935 26.1496C25.1935 25.6779 25.3635 25.2681 25.7035 24.9201L30.9935 19.6541C31.3335 19.3221 31.7333 19.1601 32.193 19.1681C32.6527 19.1761 33.072 19.3739 33.451 19.7616C33.7423 20.0662 33.8963 20.4274 33.913 20.8451C33.9297 21.2624 33.78 21.6251 33.464 21.9331L31.025 24.4221L38.9065 24.4721C39.3642 24.4721 39.7625 24.6329 40.1015 24.9546C40.4405 25.2759 40.61 25.6799 40.61 26.1666C40.61 26.6532 40.4488 27.0602 40.1265 27.3876C39.8042 27.7152 39.3975 27.8791 38.9065 27.8791L31.025 27.8291ZM3.4065 33.0791C2.4865 33.0791 1.68883 32.7412 1.0135 32.0656C0.337834 31.3899 0 30.5921 0 29.6721V22.7291C0 21.8174 0.337834 21.0217 1.0135 20.3421C1.68883 19.6621 2.4865 19.3221 3.4065 19.3221H16.2705C17.1822 19.3221 17.9778 19.6621 18.6575 20.3421C19.3375 21.0217 19.6775 21.8174 19.6775 22.7291V29.6721C19.6775 30.5921 19.3375 31.3899 18.6575 32.0656C17.9778 32.7412 17.1822 33.0791 16.2705 33.0791H3.4065ZM3.4065 29.6721H16.2705V22.7291H3.4065V29.6721ZM9.573 8.67907H1.6915C1.20783 8.67907 0.805 8.5144 0.483 8.18507C0.161 7.85607 0 7.4494 0 6.96507C0 6.4804 0.163667 6.07707 0.491 5.75507C0.818333 5.43307 1.2225 5.27207 1.7035 5.27207H9.573L7.134 2.78307C6.835 2.4804 6.68317 2.11574 6.6785 1.68907C6.67417 1.26274 6.85417 0.867737 7.2185 0.504071C7.55083 0.172071 7.94667 0.00406977 8.406 6.97671e-05C8.865 -0.00393023 9.2645 0.164071 9.6045 0.504071L14.8825 5.77007C15.2225 6.11074 15.3945 6.51074 15.3985 6.97007C15.4025 7.4294 15.2345 7.82907 14.8945 8.16907L9.6045 13.4971C9.2645 13.8371 8.86267 14.0031 8.399 13.9951C7.93533 13.9871 7.50967 13.7892 7.122 13.4016C6.83933 13.1179 6.68967 12.7604 6.673 12.3291C6.65633 11.8977 6.79333 11.5274 7.084 11.2181L9.573 8.67907ZM24.339 13.8906C23.4193 13.8906 22.6217 13.5517 21.946 12.8741C21.2703 12.1961 20.9325 11.3954 20.9325 10.4721V3.52907C20.9325 2.60574 21.2703 1.80507 21.946 1.12707C22.6217 0.449405 23.4193 0.110571 24.339 0.110571H37.1915C38.1148 0.110571 38.9153 0.449405 39.593 1.12707C40.271 1.80507 40.61 2.60574 40.61 3.52907V10.4721C40.61 11.3954 40.271 12.1961 39.593 12.8741C38.9153 13.5517 38.1148 13.8906 37.1915 13.8906H24.339ZM24.339 10.4721H37.1915V3.52907H24.339V10.4721Z" fill="#010204"/>
</svg>
