<svg width="42" height="42" viewBox="0 0 42 42" fill="none" xmlns="http://www.w3.org/2000/svg">
<path d="M15.177 18.6105H17.577C18.1013 18.6105 18.5407 18.4333 18.895 18.079C19.2497 17.7243 19.427 17.2848 19.427 16.7605V14.3605C19.427 13.8365 19.2497 13.3972 18.895 13.0425C18.5407 12.6878 18.1013 12.5105 17.577 12.5105H14.277C14.0237 12.5105 13.802 12.5938 13.612 12.7605C13.422 12.9272 13.327 13.1507 13.327 13.431V21.8405C13.327 22.1128 13.422 22.3343 13.612 22.505C13.802 22.6753 14.0237 22.7605 14.277 22.7605C14.5357 22.7605 14.7503 22.6637 14.921 22.47C15.0917 22.276 15.177 22.0562 15.177 21.8105V18.6105ZM15.177 16.7605V14.3605H17.577V16.7605H15.177ZM25.7435 22.7605C26.2435 22.7605 26.6768 22.5833 27.0435 22.229C27.4102 21.8743 27.5935 21.4348 27.5935 20.9105V14.3605C27.5935 13.8365 27.4102 13.3972 27.0435 13.0425C26.6768 12.6878 26.2435 12.5105 25.7435 12.5105H22.4935C22.2402 12.5105 22.0185 12.5938 21.8285 12.7605C21.6385 12.9272 21.5435 13.15 21.5435 13.429V21.7925C21.5435 22.0635 21.6385 22.2927 21.8285 22.48C22.0185 22.667 22.2402 22.7605 22.4935 22.7605H25.7435ZM23.3935 20.9105V14.3605H25.7435V20.9105H23.3935ZM31.8455 18.6105H33.4455C33.7042 18.6105 33.9188 18.5137 34.0895 18.32C34.2602 18.126 34.3455 17.9043 34.3455 17.655C34.3455 17.392 34.2602 17.1772 34.0895 17.0105C33.9188 16.8438 33.7042 16.7605 33.4455 16.7605H31.8455V14.3605H33.4455C33.7042 14.3605 33.9188 14.2637 34.0895 14.07C34.2602 13.876 34.3455 13.6543 34.3455 13.405C34.3455 13.142 34.2602 12.9272 34.0895 12.7605C33.9188 12.5938 33.7042 12.5105 33.4455 12.5105H30.9455C30.6922 12.5105 30.4705 12.5938 30.2805 12.7605C30.0905 12.9272 29.9955 13.1507 29.9955 13.431V21.8405C29.9955 22.1128 30.0905 22.3343 30.2805 22.505C30.4705 22.6753 30.6922 22.7605 30.9455 22.7605C31.2042 22.7605 31.4188 22.6637 31.5895 22.47C31.7602 22.276 31.8455 22.0562 31.8455 21.8105V18.6105ZM9.825 34.6095C8.905 34.6095 8.10717 34.2718 7.4315 33.5965C6.75617 32.9208 6.4185 32.123 6.4185 31.203V3.4185C6.4185 2.49517 6.75617 1.6945 7.4315 1.0165C8.10717 0.338834 8.905 0 9.825 0H37.6095C38.5328 0 39.3335 0.338834 40.0115 1.0165C40.6892 1.6945 41.028 2.49517 41.028 3.4185V31.203C41.028 32.123 40.6892 32.9208 40.0115 33.5965C39.3335 34.2718 38.5328 34.6095 37.6095 34.6095H9.825ZM9.825 31.203H37.6095V3.4185H9.825V31.203ZM3.4185 41.028C2.49517 41.028 1.6945 40.6892 1.0165 40.0115C0.338833 39.3335 0 38.5328 0 37.6095V8.1215C0 7.64084 0.1645 7.23683 0.4935 6.9095C0.8225 6.58217 1.23067 6.4185 1.718 6.4185C2.20533 6.4185 2.6105 6.58217 2.9335 6.9095C3.25683 7.23683 3.4185 7.64084 3.4185 8.1215V37.6095H32.9065C33.3872 37.6095 33.7912 37.774 34.1185 38.103C34.4458 38.4323 34.6095 38.8405 34.6095 39.3275C34.6095 39.8148 34.4458 40.2202 34.1185 40.5435C33.7912 40.8665 33.3872 41.028 32.9065 41.028H3.4185Z" fill="white"/>
</svg>
