<svg width="45" height="33" viewBox="0 0 45 33" fill="none" xmlns="http://www.w3.org/2000/svg">
<path d="M4.0595 24.659V18.0025H1.703C1.22033 18.0025 0.815833 17.838 0.4895 17.509C0.163167 17.1797 0 16.7725 0 16.2875C0 15.8022 0.163667 15.4008 0.491 15.0835C0.818333 14.7662 1.22233 14.6075 1.703 14.6075H4.0595V8.001C4.0595 6.36866 4.62483 4.981 5.7555 3.838C6.8865 2.69533 8.25967 2.124 9.875 2.124H12.275V1.524C12.3147 1.075 12.497 0.708831 12.822 0.425497C13.147 0.141831 13.5393 0 13.999 0C14.485 0 14.8868 0.165998 15.2045 0.497998C15.5225 0.829665 15.6815 1.2355 15.6815 1.7155V30.9185C15.6815 31.4022 15.517 31.805 15.188 32.127C14.8587 32.449 14.4525 32.61 13.9695 32.61C13.5178 32.61 13.1345 32.4682 12.8195 32.1845C12.5042 31.9012 12.3227 31.539 12.275 31.098V30.548H9.879C8.257 30.548 6.8815 29.9738 5.7525 28.8255C4.62383 27.6768 4.0595 26.288 4.0595 24.659ZM9.8535 27.1415H12.275V5.5305H9.8535C9.2185 5.5305 8.65983 5.77 8.1775 6.249C7.69517 6.72767 7.454 7.31166 7.454 8.001V24.659C7.454 25.3517 7.69517 25.9387 8.1775 26.42C8.65983 26.901 9.2185 27.1415 9.8535 27.1415ZM40.6695 24.659C40.6695 26.288 40.103 27.6768 38.97 28.8255C37.8367 29.9738 36.4607 30.548 34.842 30.548H32.442V31.098C32.4103 31.547 32.2297 31.9112 31.9 32.1905C31.5707 32.4702 31.1807 32.61 30.73 32.61C30.236 32.61 29.8302 32.4463 29.5125 32.119C29.1945 31.7917 29.0355 31.3875 29.0355 30.9065V24.3H22.205C21.7227 24.3 21.3182 24.1355 20.9915 23.8065C20.6652 23.4775 20.502 23.0707 20.502 22.586C20.502 22.1017 20.6657 21.6985 20.993 21.3765C21.3203 21.0545 21.7243 20.8935 22.205 20.8935H29.0355V11.7665H22.205C21.7227 11.7665 21.3182 11.602 20.9915 11.273C20.6652 10.944 20.502 10.5368 20.502 10.0515C20.502 9.56616 20.6657 9.16483 20.993 8.8475C21.3203 8.5305 21.7243 8.372 22.205 8.372H29.0355V1.7035C29.0355 1.22083 29.2012 0.816333 29.5325 0.489999C29.8638 0.163333 30.2688 0 30.7475 0C31.1992 0 31.5845 0.143831 31.9035 0.431497C32.2228 0.71883 32.4023 1.083 32.442 1.524V2.124H34.842C36.4607 2.124 37.8367 2.69533 38.97 3.838C40.103 4.981 40.6695 6.36866 40.6695 8.001V14.6075H43.026C43.505 14.6075 43.9067 14.7722 44.231 15.1015C44.555 15.4305 44.717 15.8375 44.717 16.3225C44.717 16.8078 44.556 17.2092 44.234 17.5265C43.9123 17.8438 43.5097 18.0025 43.026 18.0025H40.6695V24.659ZM32.442 27.1415H34.842C35.523 27.1415 36.0967 26.901 36.563 26.42C37.0297 25.9387 37.263 25.3517 37.263 24.659V8.001C37.263 7.31166 37.031 6.72767 36.567 6.249C36.103 5.77 35.528 5.5305 34.842 5.5305H32.442V27.1415Z" fill="white"/>
</svg>
