<svg width="40" height="40" viewBox="0 0 40 40" fill="none" xmlns="http://www.w3.org/2000/svg">
<path d="M16.3295 29.4785C19.9555 29.4785 23.0515 28.2017 25.6175 25.648C28.1835 23.0947 29.4665 19.9955 29.4665 16.3505C29.4665 12.7335 28.183 9.658 25.616 7.124C23.049 4.59 19.9555 3.323 16.3355 3.323C12.7135 3.323 9.63933 4.5905 7.113 7.1255C4.58633 9.6605 3.323 12.7335 3.323 16.3445C3.323 19.9935 4.58633 23.0947 7.113 25.648C9.63933 28.2017 12.7115 29.4785 16.3295 29.4785ZM16.3835 21.7915C15.9258 21.7915 15.5453 21.6352 15.242 21.3225C14.9387 21.0102 14.787 20.6267 14.787 20.172V10.1565C14.787 9.70183 14.9415 9.31833 15.2505 9.006C15.5598 8.69333 15.9433 8.537 16.401 8.537C16.859 8.537 17.2423 8.69333 17.551 9.006C17.8597 9.31833 18.014 9.70183 18.014 10.1565V20.172C18.014 20.6267 17.8568 21.0102 17.5425 21.3225C17.2278 21.6352 16.8415 21.7915 16.3835 21.7915ZM9.0855 21.7915C8.62783 21.7915 8.24533 21.6352 7.938 21.3225C7.631 21.0102 7.4775 20.6267 7.4775 20.172V14.3305C7.4775 13.8758 7.63467 13.4923 7.949 13.18C8.26367 12.8673 8.65 12.711 9.108 12.711C9.56567 12.711 9.94817 12.8673 10.2555 13.18C10.5628 13.4923 10.7165 13.8758 10.7165 14.3305V20.172C10.7165 20.6267 10.5592 21.0102 10.2445 21.3225C9.92983 21.6352 9.5435 21.7915 9.0855 21.7915ZM23.6935 21.7915C23.2355 21.7915 22.8528 21.6352 22.5455 21.3225C22.2385 21.0102 22.085 20.6267 22.085 20.172V16.3805C22.085 15.9292 22.2423 15.5485 22.557 15.2385C22.8717 14.9282 23.2578 14.773 23.7155 14.773C24.1735 14.773 24.556 14.9282 24.863 15.2385C25.1703 15.5485 25.324 15.9292 25.324 16.3805V20.172C25.324 20.6267 25.1667 21.0102 24.852 21.3225C24.5373 21.6352 24.1512 21.7915 23.6935 21.7915ZM16.33 32.801C11.787 32.801 7.9295 31.202 4.7575 28.004C1.58583 24.806 0 20.9257 0 16.363C0 11.8003 1.58333 7.9325 4.75 4.7595C7.91667 1.5865 11.7813 0 16.344 0C20.9067 0 24.7882 1.59 27.9885 4.77C31.1888 7.94966 32.789 11.8078 32.789 16.3445C32.789 18.3188 32.466 20.1845 31.82 21.9415C31.174 23.6985 30.2677 25.2895 29.101 26.7145L39.3665 36.9795C39.7062 37.3195 39.8697 37.7173 39.857 38.173C39.8443 38.6287 39.6767 39.0265 39.354 39.3665C39.039 39.7062 38.6412 39.876 38.1605 39.876C37.6795 39.876 37.2692 39.7062 36.9295 39.3665L26.714 29.101C25.2823 30.2677 23.6858 31.176 21.9245 31.826C20.1632 32.476 18.2983 32.801 16.33 32.801Z" fill="white"/>
</svg>
