<svg width="41" height="40" viewBox="0 0 41 40" fill="none" xmlns="http://www.w3.org/2000/svg">
<path d="M3.4065 36.61C2.4865 36.61 1.68883 36.2722 1.0135 35.5965C0.337833 34.9212 0 34.1235 0 33.2035V3.4185C0 2.49517 0.337833 1.69466 1.0135 1.017C1.68883 0.338998 2.4865 0 3.4065 0H33.1915C34.1148 0 34.9153 0.338998 35.593 1.017C36.271 1.69466 36.61 2.49517 36.61 3.4185V19.4575C36.61 19.9385 36.4432 20.3427 36.1095 20.67C35.7755 20.9973 35.3673 21.161 34.885 21.161C34.4023 21.161 33.9993 20.9973 33.676 20.67C33.353 20.3427 33.1915 19.9385 33.1915 19.4575V11.5025H18.823V19.56C18.823 20.505 18.4893 21.309 17.822 21.972C17.155 22.635 16.3532 22.9665 15.4165 22.9665H3.4065V33.2035H10.8295C11.2888 33.2035 11.6775 33.372 11.9955 33.709C12.3138 34.0457 12.473 34.4558 12.473 34.9395C12.473 35.4265 12.312 35.8267 11.99 36.14C11.6683 36.4533 11.2695 36.61 10.7935 36.61H3.4065ZM3.4065 19.56H15.4165V11.5025H3.4065V19.56ZM3.4065 8.096H33.1915V3.4185H3.4065V8.096ZM26.984 39.6695C24.3703 39.6695 21.9295 39.0533 19.6615 37.821C17.3932 36.5883 15.597 34.8847 14.273 32.71C14.0823 32.4273 13.9497 32.1458 13.875 31.8655C13.8003 31.5855 13.763 31.2922 13.763 30.9855C13.763 30.6948 13.8023 30.3907 13.881 30.073C13.9597 29.7557 14.0903 29.4483 14.273 29.151C15.597 26.9843 17.3913 25.2848 19.656 24.0525C21.9207 22.8198 24.3613 22.2035 26.978 22.2035C29.6037 22.2035 32.0475 22.8198 34.3095 24.0525C36.5715 25.2848 38.3683 26.9843 39.7 29.151C39.8827 29.4417 40.0133 29.7313 40.092 30.02C40.1707 30.3083 40.21 30.6083 40.21 30.92C40.21 31.2317 40.179 31.5373 40.117 31.837C40.055 32.1363 39.9327 32.4273 39.75 32.71C38.4517 34.918 36.6553 36.63 34.361 37.846C32.067 39.0617 29.608 39.6695 26.984 39.6695ZM26.983 36.4305C29.016 36.4305 30.9138 35.9388 32.6765 34.9555C34.4392 33.9722 35.9032 32.6305 37.0685 30.9305C35.9032 29.2385 34.4385 27.8988 32.6745 26.9115C30.9102 25.9242 29.0113 25.4305 26.978 25.4305C24.945 25.4305 23.0492 25.9242 21.2905 26.9115C19.5318 27.8988 18.0738 29.2385 16.9165 30.9305C18.0738 32.6305 19.5327 33.9722 21.293 34.9555C23.053 35.9388 24.9497 36.4305 26.983 36.4305ZM26.982 33.526C26.257 33.526 25.6448 33.275 25.1455 32.773C24.6465 32.2707 24.397 31.657 24.397 30.932C24.397 30.207 24.6485 29.595 25.1515 29.096C25.6548 28.5967 26.266 28.347 26.985 28.347C27.714 28.347 28.3282 28.5987 28.8275 29.102C29.3265 29.605 29.576 30.216 29.576 30.935C29.576 31.664 29.325 32.2782 28.823 32.7775C28.3207 33.2765 27.707 33.526 26.982 33.526Z" fill="white"/>
</svg>
