<svg width="37" height="37" viewBox="0 0 37 37" fill="none" xmlns="http://www.w3.org/2000/svg">
<path d="M3.4065 36.61C2.4865 36.61 1.68883 36.2722 1.0135 35.5965C0.337833 34.9212 0 34.1235 0 33.2035V3.4185C0 2.49517 0.337833 1.69466 1.0135 1.017C1.68883 0.338998 2.4865 0 3.4065 0H33.1915C34.1148 0 34.9153 0.338998 35.593 1.017C36.271 1.69466 36.61 2.49517 36.61 3.4185V33.2035C36.61 34.1235 36.271 34.9212 35.593 35.5965C34.9153 36.2722 34.1148 36.61 33.1915 36.61H3.4065ZM3.4065 33.2035H33.1915V3.4185H3.4065V33.2035ZM9.794 8.209C9.37067 8.209 9.01733 8.35467 8.734 8.646C8.45067 8.93767 8.309 9.292 8.309 9.709V26.897C8.309 27.3233 8.4535 27.6807 8.7425 27.969C9.03183 28.257 9.39017 28.401 9.8175 28.401C10.2372 28.401 10.5907 28.257 10.878 27.969C11.1653 27.6807 11.309 27.3233 11.309 26.897V9.709C11.309 9.292 11.1623 8.93767 10.869 8.646C10.576 8.35467 10.2177 8.209 9.794 8.209ZM26.7865 8.209C26.3628 8.209 26.0093 8.35467 25.726 8.646C25.4427 8.93767 25.301 9.292 25.301 9.709V22.896C25.301 23.3227 25.4457 23.6802 25.735 23.9685C26.024 24.2568 26.3823 24.401 26.81 24.401C27.2293 24.401 27.5827 24.2568 27.87 23.9685C28.1573 23.6802 28.301 23.3227 28.301 22.896V9.709C28.301 9.292 28.1545 8.93767 27.8615 8.646C27.5682 8.35467 27.2098 8.209 26.7865 8.209ZM18.29 8.209C17.8627 8.209 17.5073 8.35467 17.224 8.646C16.9407 8.93767 16.799 9.292 16.799 9.709V16.901C16.799 17.326 16.9437 17.6823 17.233 17.97C17.522 18.2573 17.8803 18.401 18.308 18.401C18.7353 18.401 19.0907 18.2573 19.374 17.97C19.6573 17.6823 19.799 17.326 19.799 16.901V9.709C19.799 9.292 19.6543 8.93767 19.365 8.646C19.076 8.35467 18.7177 8.209 18.29 8.209Z" fill="#010204"/>
</svg>
