<?xml version="1.0" encoding="UTF-8"?>
<svg xmlns="http://www.w3.org/2000/svg" xmlns:v="https://vecta.io/nano" viewBox="0 0 290.3 136.3" fill="#0f3352">
  <path d="M74.2 45.1l26.4 47.6 1.6 3.2h27L74.2.7l-55 95.2h27.1l1.5-3.2zm87.8-2.8v19.3h17V77c-3.9 2.1-10.6 4.7-19.7 4.7-17.8 0-29.5-12.9-29.5-30.6s11.7-30.6 29.5-30.6c10.6 0 17.4 3.1 23.1 9l14.8-16.1c-9.5-8.9-22.8-12.2-37.8-12.2-29.4 0-50.8 19.1-51.2 49l.6 1 25.6 44.3c7.3 3.6 15.8 5.5 25.1 5.5 14 0 27.5-2.7 39.8-9.1V42.3H162zm41-40.9h33.8c18.9 0 34.6 6 34.6 27.6 0 21.3-14.5 27.9-33.7 27.9H223v35.5h-20v-91zm20 38.5h13.4c7.1 0 14.1-2.4 14.1-10.9 0-9.4-9.5-10.7-17.2-10.7H223v21.6zM.5 117.3h5c1 0 2 .2 2.9.6s1.7.9 2.4 1.6 1.2 1.5 1.6 2.4.6 1.9.6 2.9-.2 2-.6 2.9-.9 1.7-1.6 2.4-1.5 1.2-2.4 1.6-1.9.6-2.9.6h-5v-15zm4.9 12.5c.7 0 1.3-.1 1.9-.4s1.1-.6 1.6-1.1.8-1 1.1-1.6.4-1.2.4-1.9-.1-1.3-.4-1.9-.6-1.1-1.1-1.6-1-.8-1.6-1.1-1.2-.4-1.9-.4H2.9v10h2.5zm11.5-12.5h2.5v14.9h-2.5v-14.9zm14 0c1 0 2 .2 2.9.6s1.7.9 2.4 1.6l-1.8 1.8c-1-1-2.1-1.5-3.5-1.5s-2.5.5-3.5 1.5-1.4 2.1-1.4 3.5.5 2.5 1.4 3.5c1 1 2.2 1.4 3.5 1.4.7 0 1.4-.1 2.1-.4a6.57 6.57 0 0 0 1.7-1.2v-2H31v-2.5h6.2v5.3c-.3.5-.7 1-1.2 1.4s-.9.8-1.5 1.1a12.2 12.2 0 0 1-1.7.7c-.6.2-1.2.2-1.9.2-2.1 0-3.8-.7-5.3-2.2s-2.2-3.2-2.2-5.3.7-3.8 2.2-5.3c1.5-1.4 3.2-2.2 5.3-2.2zm10.3 0h2.5v14.9h-2.5v-14.9zm6.5 0h12.5v2.5h-5v12.4h-2.5v-12.4h-5v-2.5zM70 129.8h-6.9l-1.3 2.5H59l7.5-14.9 7.5 14.9h-2.8l-1.2-2.5zm-5.7-2.5h4.4l-2.2-4.4-2.2 4.4zm13.7-10h2.5v12.4H88v2.5H78v-14.9zm22.7 6v8.9h-2.5v-14.9l7.5 7.5 7.5-7.5v14.9h-2.5v-8.9l-5 5-5-5zm27.5 6.5h-6.9l-1.3 2.5h-2.8l7.5-14.9 7.5 14.9h-2.8l-1.2-2.5zm-5.7-2.5h4.4l-2.2-4.4-2.2 4.4zm23.3 5l-2.9-5h-4.2v5h-2.5v-14.9h7.5c1.4 0 2.5.5 3.5 1.5s1.5 2.1 1.5 3.5c0 1-.3 2-.9 2.8s-1.3 1.4-2.2 1.8l3.1 5.4h-2.9v-.1zm-2.1-12.5h-5v5h5c.7 0 1.3-.2 1.7-.7s.7-1.1.7-1.8-.2-1.3-.7-1.7-1-.8-1.7-.8zm14 5l7.5 7.5h-3.5l-6.5-6.4v6.4h-2.5v-14.9h2.5v6.4l6.5-6.4h3.5l-7.5 7.4zm21.4-7.5v2.5h-7.5v3.7h7.5v2.5h-7.5v3.7h7.5v2.5h-10v-14.9h10zm4.1 0h12.5v2.5h-5v12.4h-2.5v-12.4h-5v-2.5zm16.5 0h2.5v14.9h-2.5v-14.9zm6.5 0l10 9v-9h2.5v14.9l-10-9v8.9h-2.5v-14.8zm23.9 0c1 0 2 .2 2.9.6s1.7.9 2.4 1.6l-1.8 1.8c-1-1-2.1-1.5-3.5-1.5s-2.5.5-3.5 1.5-1.4 2.1-1.4 3.5.5 2.5 1.4 3.5c1 1 2.2 1.4 3.5 1.4.7 0 1.4-.1 2.1-.4a6.57 6.57 0 0 0 1.7-1.2v-2h-3.7v-2.5h6.2v5.3c-.3.5-.7 1-1.2 1.4s-.9.8-1.5 1.1a12.2 12.2 0 0 1-1.7.7c-.6.2-1.2.2-1.9.2-2.1 0-3.8-.7-5.3-2.2s-2.2-3.2-2.2-5.3.7-3.8 2.2-5.3c1.5-1.4 3.3-2.2 5.3-2.2zm8.6 18.4c.6-1.7 1.4-4.7 1.7-6.7l2.7-.3c-.7 2.4-1.9 5.5-2.7 6.8l-1.7.2zm13.2-18.4h2.5v12.4h7.5v2.5h-10v-14.9zm13.7 0h2.5v12.4h7.5v2.5h-10v-14.9zm19.7 0c1 0 2 .2 2.9.6s1.7.9 2.4 1.6l-1.8 1.8c-1-1-2.1-1.5-3.5-1.5-.7 0-1.3.1-1.9.4s-1.1.6-1.6 1.1-.8 1-1.1 1.6-.4 1.3-.4 1.9c0 .7.1 1.3.4 1.9s.6 1.1 1.1 1.6c.4.5 1 .8 1.6 1.1s1.3.4 1.9.4c1.3 0 2.5-.5 3.5-1.4l1.8 1.7c-.7.7-1.5 1.2-2.4 1.6s-1.9.6-2.9.6-2-.2-2.9-.6-1.7-.9-2.4-1.6-1.2-1.5-1.6-2.4-.6-1.9-.6-2.9.2-2 .6-2.9.9-1.7 1.6-2.4 1.5-1.2 2.4-1.6 1.9-.6 2.9-.6z"></path>
</svg>
