<?xml version="1.0" encoding="UTF-8"?>
<svg xmlns="http://www.w3.org/2000/svg" viewBox="0 0 160.363 36.71">
  <g transform="translate(55.317 5.026)">
    <path data-name="Path 56" d="M201.24,24.434a6.2,6.2,0,0,1,10.493-4.523l-1.039,1.046a4.758,4.758,0,1,0-3.241,8.285,4.792,4.792,0,0,0,3.318-1.372l1.053,1.015a6.2,6.2,0,0,1-10.583-4.451Z" transform="translate(-201.24 -18.177)" fill="#fff" class="update-fill"></path>
    <path data-name="Path 57" d="M254.086,19.02h1.21l4.838,12.058h-1.581l-.805-2h-6.2l-.805,2h-1.55Zm-2,8.736h5.132l-2.543-6.348Z" transform="translate(-236.009 -18.785)" fill="#fff" class="update-fill"></path>
    <path data-name="Path 58" d="M298.52,28.937l1.009-1.106a4.413,4.413,0,0,0,3.178,1.56,2.128,2.128,0,0,0,2.4-2,2.3,2.3,0,0,0-1.721-2.152l-1.443-.578c-1.674-.672-2.573-1.591-2.573-3.137a3.216,3.216,0,0,1,3.395-3.137,4.678,4.678,0,0,1,3.442,1.325l-.9,1.14a3.413,3.413,0,0,0-2.543-1.076,1.758,1.758,0,0,0-1.968,1.7c0,.75.418,1.295,1.691,1.809l1.487.609c1.828.75,2.589,1.934,2.589,3.4,0,2.028-1.52,3.463-3.906,3.463A5.758,5.758,0,0,1,298.52,28.937Z" transform="translate(-271.778 -18.329)" fill="#fff" class="update-fill"></path>
    <path data-name="Path 59" d="M338.42,19.02h9.426v1.405h-3.969V31.081h-1.487V20.425H338.42Z" transform="translate(-300.71 -18.785)" fill="#fff" class="update-fill"></path>
    <path data-name="Path 60" d="M385.3,19.02h1.487V31.078H385.3Z" transform="translate(-334.703 -18.785)" fill="#fff" class="update-fill"></path>
    <path data-name="Path 61" d="M407.64,19.02h.946l7.007,8.954V19.02h1.487V31.078h-.9l-7.054-8.985v8.985H407.64Z" transform="translate(-350.902 -18.785)" fill="#fff" class="update-fill"></path>
    <path data-name="Path 62" d="M465.191,23.755h3.783v.716a6.167,6.167,0,1,1-1.567-4.243l-1.053,1.015a4.791,4.791,0,0,0-3.582-1.638,4.814,4.814,0,1,0,4.7,5.507h-2.279Z" transform="translate(-386.338 -18.17)" fill="#fff" class="update-fill"></path>
  </g>
  <g data-name="Group 47" transform="translate(55.317 21.773)">
    <path data-name="Path 63" d="M201.24,79.55h.946l7.007,8.954V79.55h1.487V91.608h-.9l-7.054-8.985v8.985H201.24Z" transform="translate(-201.24 -79.318)" fill="#fff" class="update-fill"></path>
    <path data-name="Path 64" d="M254.06,86.181v4.088h5.363v1.342H252.57V79.55h6.773v1.358h-5.286v3.917h5.069v1.358H254.06Z" transform="translate(-238.46 -79.318)" fill="#fff" class="update-fill"></path>
    <path data-name="Path 65" d="M288.75,79.55h9.426v1.4h-3.969V91.608h-1.487V80.952H288.75Z" transform="translate(-264.694 -79.318)" fill="#fff" class="update-fill"></path>
    <path data-name="Path 66" d="M333.43,79.55h1.55l3.071,9.532,3.054-9.532h1.567l2.977,9.626,3.208-9.626h1.457l-4.063,12.058h-1.286l-3.087-9.859-3.241,9.859h-1.27Z" transform="translate(-297.092 -79.318)" fill="#fff" class="update-fill"></path>
    <path data-name="Path 67" d="M403.15,84.964a6.224,6.224,0,1,1,6.215,6.254A6.234,6.234,0,0,1,403.15,84.964Zm10.944,0a4.721,4.721,0,1,0-4.728,4.8A4.753,4.753,0,0,0,414.094,84.964Z" transform="translate(-347.646 -78.71)" fill="#fff" class="update-fill"></path>
    <path data-name="Path 68" d="M464.12,79.55h4.495a3.622,3.622,0,1,1,.234,7.239l3.706,4.821h-1.737l-3.689-4.835h-1.52v4.835H464.12Zm1.49,1.325v4.65h2.82a2.3,2.3,0,0,0,2.48-2.34,2.33,2.33,0,0,0-2.466-2.31Z" transform="translate(-391.856 -79.318)" fill="#fff" class="update-fill"></path>
    <path data-name="Path 69" d="M510.77,79.55h1.457v5.928l5.226-5.928h1.908l-4.233,4.774,4.341,7.286h-1.721l-3.642-6.13-1.875,2.105v4.025h-1.457V79.55Z" transform="translate(-425.682 -79.318)" fill="#fff" class="update-fill"></path>
    <path data-name="Path 70" d="M554.09,89.467l1.009-1.106a4.413,4.413,0,0,0,3.178,1.56,2.128,2.128,0,0,0,2.4-2,2.3,2.3,0,0,0-1.721-2.152l-1.44-.578c-1.674-.672-2.573-1.591-2.573-3.137a3.216,3.216,0,0,1,3.395-3.137,4.678,4.678,0,0,1,3.442,1.325l-.9,1.14a3.413,3.413,0,0,0-2.543-1.076,1.758,1.758,0,0,0-1.968,1.7c0,.75.418,1.295,1.691,1.809l1.487.609c1.828.75,2.589,1.934,2.589,3.4,0,2.028-1.52,3.463-3.906,3.463A5.761,5.761,0,0,1,554.09,89.467Z" transform="translate(-457.094 -78.862)" fill="#fff" class="update-fill"></path>
  </g>
  <g data-name="Group 50" transform="translate(0)">
    <g data-name="Group 48" transform="translate(0)">
      <path data-name="Path 71" d="M74.16,15.706,59.637,1.093a3.713,3.713,0,0,0-5.261,0L52.5,2.976l1.462,1.472,1.872-1.884a1.652,1.652,0,0,1,2.337,0L72.7,17.178a1.674,1.674,0,0,1,0,2.351L58.175,34.143a1.7,1.7,0,0,1-2.337,0L41.316,19.529a1.674,1.674,0,0,1,0-2.351l9.542-9.6L49.395,6.108l-9.539,9.6a3.77,3.77,0,0,0,0,5.294L54.378,35.615a3.713,3.713,0,0,0,5.261,0L74.163,21a3.766,3.766,0,0,0,0-5.294Z" transform="translate(-28.114)" fill="#fff" class="update-fill"></path>
      <path data-name="Path 72" d="M19.416,34.143a1.7,1.7,0,0,1-2.337,0L2.554,19.529a1.674,1.674,0,0,1,0-2.351L17.076,2.564a1.652,1.652,0,0,1,2.337,0L33.936,17.178a1.674,1.674,0,0,1,0,2.351L24.471,29.05l1.462,1.472L35.4,21a3.77,3.77,0,0,0,0-5.294L20.875,1.093a3.71,3.71,0,0,0-5.259,0L1.094,15.706a3.768,3.768,0,0,0,0,5.294L15.617,35.615a3.713,3.713,0,0,0,5.261,0l1.8-1.806-1.462-1.472Z" transform="translate(-0.008)" fill="#fff" class="update-fill"></path>
    </g>
    <g data-name="Group 49" transform="translate(35.492 34.314)">
      <path data-name="Path 73" d="M129.12,125.245a1.2,1.2,0,1,1,1.193,1.2A1.2,1.2,0,0,1,129.12,125.245Zm2.125,0a.949.949,0,0,0-.935-.941.944.944,0,0,0,0,1.887A.949.949,0,0,0,131.245,125.245Zm-1.061.116h-.08v.509h-.234v-1.256h.47c.253,0,.445.122.445.368a.367.367,0,0,1-.33.373l.371.515h-.286Zm-.08-.537v.34h.179c.14,0,.253-.047.253-.174s-.107-.166-.25-.166H130.1Z" transform="translate(-129.12 -124.05)" fill="#fff" class="update-fill"></path>
    </g>
  </g>
</svg>
