<?xml version="1.0" encoding="UTF-8"?>
<svg xmlns="http://www.w3.org/2000/svg" xmlns:v="https://vecta.io/nano" width="150" height="136">
  <defs>
    <linearGradient x1="1.55459715%" y1="10.7858047%" x2="101.999998%" y2="91.2690331%" id="A">
      <stop stop-color="#47d4d7" offset="0%"></stop>
      <stop stop-color="#5192ff" offset="100%"></stop>
    </linearGradient>
  </defs>
  <path d="M51.517 66.186c5.168 5.158 3.797 13.542 2.807 20.019-1.204 7.871-2.598 15.711-4.018 23.546-.729 4.021-1.609 7.955-2.887 11.842-1.083 3.296-2.122 6.824-4.507 9.444-4.613 5.069-11.386 5.071-17.017 1.77-6.116-3.584-8.395-9.816-8.45-16.658-.027-3.473.171-8.568 3.5-10.661 2.768-1.741 5.951-.771 7.677 1.839 1.214 1.836 1.613 3.95 1.97 6.078l.153.912c.232 1.367.493 2.724.988 4.001.399 1.03 1.518 3.574 2.94 3.488 1.508-.09 1.386-3.263 1.346-4.291-.524-8.017-1.144-16.103-1.133-24.141.01-7.313-.009-14.309 2.389-21.343 2.113-6.199 8.422-11.655 14.244-5.845zm73.857-6.637c.639 3.931.063 8.019-.771 11.874-.253 1.17-2.721 8.844-1.833 9.324 8.81-8.634 26.027-4.622 27.14 8.471 1.102 12.961-10.758 21.97-22.119 24.706-5.32 1.282-12.643 1.656-16.691-2.781-4.36-4.779-2.656-11.718-2.135-17.48.647-7.164.358-14.193.213-21.364-.117-5.782-.76-13.526 3.571-18.111 5.18-5.483 11.612-.869 12.624 5.361zM81.052 72.032c2.415.505 4.695 1.605 6.674 3.248.857.711 1.648 1.524 2.386 2.394.389.459.92 1.475 1.489 2.177.314.388.931.271 1.069-.209.988-3.434 3.551-9.507 7.005-5.03 2.796 3.624 2.2 12.489 2.2 14.826 0 1.075-.373 14.06-4.69 15.805-2.102.849-4.17-1.629-5.173-3.541-.429-.818-.654-2.196-1.428-2.178-.553.013-2.472 2.361-2.918 2.731-7.074 5.866-18 7.613-24.406-.211-6.048-7.386-1.526-19.69 4.544-25.526 3.869-3.72 8.337-5.512 13.248-4.486zm50.245 14.689c-3.809.101-8.483 2.703-9.751 6.468-1.674 4.972 3.59 7.139 7.725 7.257 3.964.054 9.376-2.368 9.585-6.82.207-4.389-3.473-7.014-7.559-6.905zm-59.329.435c-2.254 4.585-.187 8.468 4.262 8.642 3.412.692 9.067-2.624 10.486-6.484 1.677-4.56-3.574-7.25-6.567-7.378-3.33-.142-6.5 1.802-8.181 5.22zM34.074 4.992c5.168 5.158 3.797 13.542 2.807 20.019-1.203 7.871-2.598 15.711-4.018 23.546-.729 4.021-1.609 7.955-2.887 11.842-1.083 3.296-2.122 6.824-4.507 9.444-4.613 5.069-11.386 5.071-17.017 1.77C2.336 68.029.056 61.797.002 54.955l-.002-.251v-.517c.018-3.418.41-7.95 3.501-9.894 2.768-1.741 5.951-.771 7.677 1.839 1.214 1.836 1.613 3.95 1.97 6.078l.153.912c.232 1.367.493 2.724.988 4.001.399 1.03 1.518 3.574 2.94 3.488 1.508-.09 1.386-3.263 1.346-4.291-.524-8.017-1.144-16.103-1.133-24.141.01-7.313-.009-14.309 2.389-21.343 2.113-6.199 8.422-11.655 14.244-5.845zm49.601 2.989c.639 3.931.063 8.019-.771 11.874-.253 1.17-2.721 8.844-1.833 9.324 8.81-8.634 26.027-4.622 27.14 8.471 1.102 12.961-10.758 21.97-22.119 24.706-5.32 1.281-12.643 1.656-16.691-2.781-3.23-3.54-3.132-8.265-2.653-12.819l.074-.682.078-.678.365-3.301c.647-7.164.358-14.193.213-21.364-.117-5.782-.76-13.526 3.571-18.111 5.18-5.483 11.612-.869 12.624 5.361zM53.661 21.329c7.48 1.108 6.469 12.29 3.722 25.24-1.033 4.871-3.543 12.399-9.278 11.682-5.383-.673-7.117-6.805-6.311-14.525.934-8.954 2.189-23.831 11.867-22.397zm35.936 13.825c-3.809.101-8.483 2.703-9.751 6.468-1.674 4.972 3.59 7.139 7.725 7.257 3.964.054 9.376-2.368 9.585-6.82.207-4.389-3.474-7.014-7.56-6.905zM52.99.995c9.638.155 10.86 14.643 1.472 16.048C43.842 18.632 42.881 1.675 52.99.995z" fill="url(#A)" fill-rule="evenodd"></path>
</svg>
