<?xml version="1.0" encoding="utf-8"?>
<!-- Generator: Adobe Illustrator 27.9.4, SVG Export Plug-In . SVG Version: 9.03 Build 54784)  -->
<svg version="1.1" xmlns="http://www.w3.org/2000/svg" xmlns:xlink="http://www.w3.org/1999/xlink" x="0px" y="0px"
	 viewBox="0 0 238.7 79.1" style="enable-background:new 0 0 238.7 79.1;" xml:space="preserve">
<style type="text/css">
	.st0{fill:#FFFFFF;}
	.st1{fill:#A09942;}
</style>
<g id="Good_jobs_for_good_people">
</g>
<g id="Layer_3">
	<g>
		<path class="st0" d="M50.2,74.6H61v1.6H48.4V54.4h1.9V74.6z"/>
		<path class="st0" d="M101,70.1h-9.9l-2.2,6.1H87l8.2-21.8H97l8.2,21.8h-1.9L101,70.1z M91.7,68.5h8.7l-4.4-11.8L91.7,68.5z"/>
		<path class="st0" d="M132.9,76.2V54.4h6.4c2.3,0,4.1,0.5,5.3,1.4s1.8,2.4,1.8,4.3c0,1.1-0.3,2.1-0.9,2.9c-0.6,0.8-1.5,1.4-2.5,1.8
			c1.3,0.3,2.3,0.9,3.1,1.9c0.8,1,1.2,2.1,1.2,3.3c0,1.9-0.6,3.4-1.9,4.5c-1.2,1.1-3,1.6-5.2,1.6H132.9z M134.8,64.2h5
			c1.5,0,2.7-0.4,3.6-1.1c0.8-0.7,1.3-1.7,1.3-3c0-1.4-0.4-2.4-1.3-3.1c-0.9-0.7-2.2-1-4-1h-4.6V64.2z M134.8,65.7v8.9h5.5
			c1.6,0,2.8-0.4,3.7-1.2c0.9-0.8,1.4-1.9,1.4-3.3c0-1.3-0.4-2.4-1.3-3.2c-0.9-0.8-2.1-1.2-3.7-1.2H134.8z"/>
		<path class="st0" d="M188.5,70.8c0-1.2-0.4-2.2-1.3-2.9c-0.8-0.7-2.4-1.4-4.7-2c-2.3-0.6-3.9-1.3-4.9-2.1
			c-1.5-1.1-2.2-2.4-2.2-4.2c0-1.7,0.7-3,2.1-4.1s3.1-1.6,5.3-1.6c1.4,0,2.7,0.3,3.9,0.8c1.1,0.6,2,1.3,2.7,2.3s0.9,2.1,0.9,3.3
			h-1.9c0-1.5-0.5-2.7-1.5-3.6c-1-0.9-2.4-1.4-4.1-1.4c-1.7,0-3,0.4-4,1.1s-1.5,1.7-1.5,2.9c0,1.1,0.4,2,1.3,2.7
			c0.9,0.7,2.3,1.3,4.3,1.8c2,0.5,3.4,1.1,4.4,1.7c1,0.6,1.8,1.3,2.3,2.1s0.8,1.7,0.8,2.8c0,1.7-0.7,3.1-2.1,4.1s-3.2,1.6-5.4,1.6
			c-1.5,0-2.9-0.3-4.2-0.8c-1.3-0.5-2.3-1.3-2.9-2.3s-1-2.1-1-3.4h1.8c0,1.5,0.6,2.7,1.7,3.6c1.1,0.9,2.7,1.3,4.6,1.3
			c1.7,0,3.1-0.4,4.1-1.1C188,73,188.5,72,188.5,70.8z"/>
	</g>
</g>
<g id="Aviada">
	<path class="st1" d="M24.1,14.3h-7.9l5.9-13.7h4L46,46.9h-7.9l-7.4-17.3L24.1,14.3z M12.4,23.1h7.9l-6,13.8l-4.3,10H2.1L12.4,23.1z
		"/>
	<path class="st1" d="M59.4,33.3h7.9l-5.9,13.7h-4L37.5,0.7h7.9l7.4,17.3L59.4,33.3z M71.1,24.5h-7.9l6-13.8l4.3-10h7.9L71.1,24.5z"
		/>
	<path class="st1" d="M96.6,46.9h-7.2V0.8h7.2V46.9z"/>
	<path class="st1" d="M125.5,14.4h-7.9l5.9-13.7h4L147.4,47h-7.9l-7.4-17.3L125.5,14.4z M113.8,23.2h7.9l-6,13.8l-4.3,10h-7.9
		L113.8,23.2z"/>
	<path class="st1" d="M177.4,2.6c2.8,1.2,5.3,2.9,7.4,5c2.1,2.1,3.8,4.6,5,7.4c1.2,2.8,1.8,5.8,1.8,9c0,3.1-0.5,5.9-1.6,8.6
		c-1.1,2.7-2.6,5-4.5,7.1c-1.9,2.1-4.1,3.7-6.7,5c-2.6,1.3-5.3,2.1-8.3,2.3v-7.3c1.9-0.2,3.8-0.8,5.4-1.7c1.7-0.9,3.2-2.1,4.4-3.5
		c1.2-1.4,2.2-3,2.9-4.8c0.7-1.8,1.1-3.7,1.1-5.8c0-2.2-0.4-4.2-1.2-6.2c-0.8-1.9-2-3.6-3.4-5c-1.4-1.4-3.1-2.6-5.1-3.4
		c-1.9-0.8-4-1.3-6.2-1.3h-7.2v31.6h-7.2V0.8h14.5C171.6,0.8,174.6,1.4,177.4,2.6z"/>
	<path class="st1" d="M214.7,14.3h-7.9l5.9-13.7h4l19.9,46.3h-7.9l-7.4-17.3L214.7,14.3z M203,23.1h7.9l-6,13.8l-4.3,10h-7.9
		L203,23.1z"/>
</g>
</svg>
